#N canvas 176 77 956 778 16;
#X obj 492 -2 frequency;
#X floatatom 234 -34 5 0 0 0 - - -;
#X obj 118 86 osc~;
#X obj 116 138 *~ 1;
#X obj 237 243 dac~;
#X floatatom 86 -19 5 0 0 0 - - -;
#X msg 442 259 \; pd dsp \$1;
#X obj 446 170 tgl 15 0 empty empty empty 17 7 0 10 -262144 -1 -1 1
1;
#X msg 226 83 0.5;
#X msg 485 50 toggle signals on/off;
#X floatatom 290 156 5 0 0 0 - - -;
#X obj 318 -22 vsl 15 128 0 127 0 0 empty empty empty 0 -9 0 10 -258113
-1 -1 0 1;
#X floatatom 243 338 5 0 0 0 - - -;
#X obj 127 458 osc~;
#X obj 125 510 *~ 1;
#X obj 246 615 dac~;
#X floatatom 95 353 5 0 0 0 - - -;
#X msg 235 455 0.5;
#X floatatom 299 528 5 0 0 0 - - -;
#X obj 376 349 vsl 15 128 0 127 0 0 empty empty empty 0 -9 0 10 -258113
-1 -1 0 1;
#X obj 375 572 env~;
#X floatatom 446 604 5 0 0 0 - - -;
#X obj 623 376 vu 15 120 empty empty -1 -8 0 10 -66577 -1 1 0;
#X obj 785 470 dac~;
#X obj 724 337 osc~;
#X obj 752 395 *~ 1;
#X msg 736 202 64;
#X msg 583 200 60;
#X msg 652 202 62;
#X text 576 164 C;
#X text 744 165 E;
#X text 659 164 D;
#X text 808 165 off;
#X msg 811 201 0;
#X msg 670 295 sig~;
#X msg 628 248 mtof;
#X floatatom 640 105 5 0 0 0 - - -;
#X obj 746 79 bng 15 250 50 0 empty empty empty 17 7 0 10 -262144 -1
-1;
#X connect 1 0 2 0;
#X connect 2 0 3 0;
#X connect 3 0 4 0;
#X connect 3 0 4 1;
#X connect 5 0 2 0;
#X connect 7 0 6 0;
#X connect 8 0 3 1;
#X connect 11 0 3 1;
#X connect 11 0 10 0;
#X connect 12 0 13 0;
#X connect 13 0 14 0;
#X connect 14 0 15 0;
#X connect 14 0 15 1;
#X connect 14 0 20 0;
#X connect 16 0 13 0;
#X connect 17 0 14 1;
#X connect 19 0 14 1;
#X connect 19 0 18 0;
#X connect 20 0 21 0;
#X connect 21 0 22 0;
#X connect 24 0 25 0;
#X connect 25 0 23 0;
#X connect 25 0 23 1;
#X connect 26 0 35 0;
#X connect 27 0 35 0;
#X connect 28 0 35 0;
#X connect 33 0 35 0;
#X connect 34 0 24 0;
#X connect 35 0 34 0;
#X connect 36 0 35 0;
#X connect 37 0 36 0;
